<mxfile host="app.diagrams.net" agent="Mozilla/5.0 (Windows NT 10.0; Win64; x64) AppleWebKit/537.36 (KHTML, like Gecko) Chrome/132.0.0.0 Safari/537.36" version="26.0.10">
  <diagram name="Страница — 1" id="g5Z4J2Kej41NbY1sLd3g">
    <mxGraphModel dx="1270" dy="699" grid="1" gridSize="10" guides="1" tooltips="1" connect="1" arrows="1" fold="1" page="1" pageScale="1" pageWidth="827" pageHeight="1169" math="0" shadow="0">
      <root>
        <mxCell id="0" />
        <mxCell id="1" parent="0" />
        <mxCell id="8tKniSYLT_FTo-LNf7-M-2" style="edgeStyle=orthogonalEdgeStyle;rounded=0;orthogonalLoop=1;jettySize=auto;html=1;" edge="1" parent="1" source="8tKniSYLT_FTo-LNf7-M-1" target="8tKniSYLT_FTo-LNf7-M-3">
          <mxGeometry relative="1" as="geometry">
            <mxPoint x="414" y="190" as="targetPoint" />
          </mxGeometry>
        </mxCell>
        <mxCell id="8tKniSYLT_FTo-LNf7-M-1" value="Початок" style="rounded=1;whiteSpace=wrap;html=1;arcSize=44;" vertex="1" parent="1">
          <mxGeometry x="379.5" y="150" width="70" height="30" as="geometry" />
        </mxCell>
        <mxCell id="8tKniSYLT_FTo-LNf7-M-20" style="edgeStyle=orthogonalEdgeStyle;rounded=0;orthogonalLoop=1;jettySize=auto;html=1;entryX=0.5;entryY=0;entryDx=0;entryDy=0;" edge="1" parent="1" source="8tKniSYLT_FTo-LNf7-M-3" target="8tKniSYLT_FTo-LNf7-M-5">
          <mxGeometry relative="1" as="geometry" />
        </mxCell>
        <mxCell id="8tKniSYLT_FTo-LNf7-M-3" value="Імпортуєм random" style="rounded=0;whiteSpace=wrap;html=1;" vertex="1" parent="1">
          <mxGeometry x="356.5" y="200" width="116" height="30" as="geometry" />
        </mxCell>
        <mxCell id="8tKniSYLT_FTo-LNf7-M-7" value="" style="edgeStyle=orthogonalEdgeStyle;rounded=0;orthogonalLoop=1;jettySize=auto;html=1;" edge="1" parent="1" source="8tKniSYLT_FTo-LNf7-M-5" target="8tKniSYLT_FTo-LNf7-M-6">
          <mxGeometry relative="1" as="geometry" />
        </mxCell>
        <mxCell id="8tKniSYLT_FTo-LNf7-M-5" value="is_ok = False" style="rounded=0;whiteSpace=wrap;html=1;" vertex="1" parent="1">
          <mxGeometry x="376.5" y="250" width="76" height="30" as="geometry" />
        </mxCell>
        <mxCell id="8tKniSYLT_FTo-LNf7-M-9" value="True" style="edgeStyle=orthogonalEdgeStyle;rounded=0;orthogonalLoop=1;jettySize=auto;html=1;" edge="1" parent="1" source="8tKniSYLT_FTo-LNf7-M-6" target="8tKniSYLT_FTo-LNf7-M-10">
          <mxGeometry relative="1" as="geometry">
            <mxPoint x="320" y="315" as="targetPoint" />
          </mxGeometry>
        </mxCell>
        <mxCell id="8tKniSYLT_FTo-LNf7-M-15" value="False" style="edgeStyle=orthogonalEdgeStyle;rounded=0;orthogonalLoop=1;jettySize=auto;html=1;" edge="1" parent="1" source="8tKniSYLT_FTo-LNf7-M-6" target="8tKniSYLT_FTo-LNf7-M-22">
          <mxGeometry relative="1" as="geometry">
            <mxPoint x="510" y="315" as="targetPoint" />
          </mxGeometry>
        </mxCell>
        <mxCell id="8tKniSYLT_FTo-LNf7-M-6" value="not is_ok" style="rhombus;whiteSpace=wrap;html=1;" vertex="1" parent="1">
          <mxGeometry x="379" y="300" width="71" height="30" as="geometry" />
        </mxCell>
        <mxCell id="8tKniSYLT_FTo-LNf7-M-13" value="" style="edgeStyle=orthogonalEdgeStyle;rounded=0;orthogonalLoop=1;jettySize=auto;html=1;entryX=0.5;entryY=0;entryDx=0;entryDy=0;" edge="1" parent="1" source="8tKniSYLT_FTo-LNf7-M-10" target="8tKniSYLT_FTo-LNf7-M-11">
          <mxGeometry relative="1" as="geometry">
            <Array as="points">
              <mxPoint x="260" y="340" />
              <mxPoint x="260" y="340" />
            </Array>
          </mxGeometry>
        </mxCell>
        <mxCell id="8tKniSYLT_FTo-LNf7-M-10" value="l = Введіть глибину:" style="shape=parallelogram;perimeter=parallelogramPerimeter;whiteSpace=wrap;html=1;fixedSize=1;" vertex="1" parent="1">
          <mxGeometry x="200" y="300" width="140" height="30" as="geometry" />
        </mxCell>
        <mxCell id="8tKniSYLT_FTo-LNf7-M-14" style="edgeStyle=orthogonalEdgeStyle;rounded=0;orthogonalLoop=1;jettySize=auto;html=1;entryX=0.5;entryY=0;entryDx=0;entryDy=0;" edge="1" parent="1" source="8tKniSYLT_FTo-LNf7-M-11" target="8tKniSYLT_FTo-LNf7-M-12">
          <mxGeometry relative="1" as="geometry" />
        </mxCell>
        <mxCell id="8tKniSYLT_FTo-LNf7-M-11" value="m = Введіть рядки:" style="shape=parallelogram;perimeter=parallelogramPerimeter;whiteSpace=wrap;html=1;fixedSize=1;" vertex="1" parent="1">
          <mxGeometry x="190" y="350" width="140" height="30" as="geometry" />
        </mxCell>
        <mxCell id="8tKniSYLT_FTo-LNf7-M-18" style="edgeStyle=orthogonalEdgeStyle;rounded=0;orthogonalLoop=1;jettySize=auto;html=1;entryX=0;entryY=0.5;entryDx=0;entryDy=0;" edge="1" parent="1" source="8tKniSYLT_FTo-LNf7-M-12" target="8tKniSYLT_FTo-LNf7-M-17">
          <mxGeometry relative="1" as="geometry" />
        </mxCell>
        <mxCell id="8tKniSYLT_FTo-LNf7-M-12" value="n = Введіть стовпці:" style="shape=parallelogram;perimeter=parallelogramPerimeter;whiteSpace=wrap;html=1;fixedSize=1;" vertex="1" parent="1">
          <mxGeometry x="190" y="400" width="140" height="30" as="geometry" />
        </mxCell>
        <mxCell id="8tKniSYLT_FTo-LNf7-M-21" style="edgeStyle=orthogonalEdgeStyle;rounded=0;orthogonalLoop=1;jettySize=auto;html=1;entryX=0.5;entryY=1;entryDx=0;entryDy=0;" edge="1" parent="1" source="8tKniSYLT_FTo-LNf7-M-17" target="8tKniSYLT_FTo-LNf7-M-6">
          <mxGeometry relative="1" as="geometry" />
        </mxCell>
        <mxCell id="8tKniSYLT_FTo-LNf7-M-17" value="is_ok = True" style="rounded=0;whiteSpace=wrap;html=1;" vertex="1" parent="1">
          <mxGeometry x="377.5" y="402.5" width="74" height="25" as="geometry" />
        </mxCell>
        <mxCell id="8tKniSYLT_FTo-LNf7-M-23" style="edgeStyle=orthogonalEdgeStyle;rounded=0;orthogonalLoop=1;jettySize=auto;html=1;" edge="1" parent="1" source="8tKniSYLT_FTo-LNf7-M-22" target="8tKniSYLT_FTo-LNf7-M-24">
          <mxGeometry relative="1" as="geometry">
            <mxPoint x="600" y="315" as="targetPoint" />
          </mxGeometry>
        </mxCell>
        <mxCell id="8tKniSYLT_FTo-LNf7-M-22" value="arr = []" style="rounded=0;whiteSpace=wrap;html=1;" vertex="1" parent="1">
          <mxGeometry x="510" y="302.5" width="60" height="25" as="geometry" />
        </mxCell>
        <mxCell id="8tKniSYLT_FTo-LNf7-M-26" value="False" style="edgeStyle=orthogonalEdgeStyle;rounded=0;orthogonalLoop=1;jettySize=auto;html=1;entryX=0.5;entryY=0;entryDx=0;entryDy=0;" edge="1" parent="1" source="8tKniSYLT_FTo-LNf7-M-24" target="8tKniSYLT_FTo-LNf7-M-25">
          <mxGeometry relative="1" as="geometry" />
        </mxCell>
        <mxCell id="8tKniSYLT_FTo-LNf7-M-31" value="True" style="edgeStyle=orthogonalEdgeStyle;rounded=0;orthogonalLoop=1;jettySize=auto;html=1;entryX=0;entryY=0.5;entryDx=0;entryDy=0;" edge="1" parent="1" source="8tKniSYLT_FTo-LNf7-M-24" target="8tKniSYLT_FTo-LNf7-M-32">
          <mxGeometry relative="1" as="geometry">
            <mxPoint x="800" y="315" as="targetPoint" />
          </mxGeometry>
        </mxCell>
        <mxCell id="8tKniSYLT_FTo-LNf7-M-24" value="&lt;font style=&quot;font-size: 7px;&quot;&gt;Останній елемент&amp;nbsp;&lt;/font&gt;&lt;div&gt;&lt;font style=&quot;font-size: 7px;&quot;&gt;діапазону (0, m)&amp;nbsp;&lt;/font&gt;&lt;/div&gt;&lt;div&gt;&lt;font style=&quot;font-size: 7px;&quot;&gt;досянуто?&lt;/font&gt;&lt;/div&gt;" style="rhombus;whiteSpace=wrap;html=1;" vertex="1" parent="1">
          <mxGeometry x="605" y="273.75" width="90" height="82.5" as="geometry" />
        </mxCell>
        <mxCell id="8tKniSYLT_FTo-LNf7-M-27" value="False" style="edgeStyle=orthogonalEdgeStyle;rounded=0;orthogonalLoop=1;jettySize=auto;html=1;" edge="1" parent="1" source="8tKniSYLT_FTo-LNf7-M-25" target="8tKniSYLT_FTo-LNf7-M-28">
          <mxGeometry relative="1" as="geometry">
            <mxPoint x="650" y="490" as="targetPoint" />
          </mxGeometry>
        </mxCell>
        <mxCell id="8tKniSYLT_FTo-LNf7-M-30" value="True" style="edgeStyle=orthogonalEdgeStyle;rounded=0;orthogonalLoop=1;jettySize=auto;html=1;entryX=0;entryY=0.5;entryDx=0;entryDy=0;" edge="1" parent="1" source="8tKniSYLT_FTo-LNf7-M-25" target="8tKniSYLT_FTo-LNf7-M-24">
          <mxGeometry relative="1" as="geometry">
            <Array as="points">
              <mxPoint x="585" y="429" />
              <mxPoint x="585" y="315" />
            </Array>
          </mxGeometry>
        </mxCell>
        <mxCell id="8tKniSYLT_FTo-LNf7-M-25" value="&lt;font style=&quot;font-size: 7px;&quot;&gt;Останній елемент&lt;/font&gt;&lt;div&gt;&lt;font style=&quot;font-size: 7px;&quot;&gt;діапазону (0, n)&amp;nbsp;&lt;/font&gt;&lt;div&gt;&lt;font style=&quot;font-size: 7px;&quot;&gt;досянуто?&lt;/font&gt;&lt;/div&gt;&lt;/div&gt;" style="rhombus;whiteSpace=wrap;html=1;" vertex="1" parent="1">
          <mxGeometry x="602.5" y="390" width="92.5" height="77.5" as="geometry" />
        </mxCell>
        <mxCell id="8tKniSYLT_FTo-LNf7-M-29" style="edgeStyle=orthogonalEdgeStyle;rounded=0;orthogonalLoop=1;jettySize=auto;html=1;entryX=1;entryY=0.5;entryDx=0;entryDy=0;" edge="1" parent="1" source="8tKniSYLT_FTo-LNf7-M-28" target="8tKniSYLT_FTo-LNf7-M-25">
          <mxGeometry relative="1" as="geometry">
            <Array as="points">
              <mxPoint x="920" y="515" />
              <mxPoint x="920" y="429" />
            </Array>
          </mxGeometry>
        </mxCell>
        <UserObject label="arr.extend([[[rn.randint(0,3) if rn.randint(0,100)&gt;25 else rn.randint(4,7) for k in range(l) ], i, g]])" link="arr.extend([[[rn.randint(0,3) if rn.randint(0,100)&gt;25 else rn.randint(4,7) for k in range(l) ], i, g]])" id="8tKniSYLT_FTo-LNf7-M-28">
          <mxCell style="rounded=0;whiteSpace=wrap;html=1;" vertex="1" parent="1">
            <mxGeometry x="388.75" y="500" width="520" height="30" as="geometry" />
          </mxCell>
        </UserObject>
        <mxCell id="8tKniSYLT_FTo-LNf7-M-33" value="False" style="edgeStyle=orthogonalEdgeStyle;rounded=0;orthogonalLoop=1;jettySize=auto;html=1;" edge="1" parent="1" source="8tKniSYLT_FTo-LNf7-M-32" target="8tKniSYLT_FTo-LNf7-M-34">
          <mxGeometry relative="1" as="geometry">
            <mxPoint x="850" y="315" as="targetPoint" />
          </mxGeometry>
        </mxCell>
        <mxCell id="8tKniSYLT_FTo-LNf7-M-35" value="True" style="edgeStyle=orthogonalEdgeStyle;rounded=0;orthogonalLoop=1;jettySize=auto;html=1;" edge="1" parent="1" source="8tKniSYLT_FTo-LNf7-M-32" target="8tKniSYLT_FTo-LNf7-M-36">
          <mxGeometry relative="1" as="geometry">
            <mxPoint x="910" y="380" as="targetPoint" />
            <Array as="points">
              <mxPoint x="782" y="380" />
            </Array>
          </mxGeometry>
        </mxCell>
        <mxCell id="8tKniSYLT_FTo-LNf7-M-32" value="&lt;font style=&quot;font-size: 7px;&quot;&gt;Останній елемент&amp;nbsp;&lt;/font&gt;&lt;div&gt;&lt;font style=&quot;font-size: 7px;&quot;&gt;списку arr&amp;nbsp;&lt;/font&gt;&lt;/div&gt;&lt;div&gt;&lt;font style=&quot;font-size: 7px;&quot;&gt;досянуто?&lt;/font&gt;&lt;/div&gt;" style="rhombus;whiteSpace=wrap;html=1;" vertex="1" parent="1">
          <mxGeometry x="737" y="273.75" width="90" height="82.5" as="geometry" />
        </mxCell>
        <mxCell id="8tKniSYLT_FTo-LNf7-M-37" style="edgeStyle=orthogonalEdgeStyle;rounded=0;orthogonalLoop=1;jettySize=auto;html=1;entryX=0.5;entryY=0;entryDx=0;entryDy=0;" edge="1" parent="1" source="8tKniSYLT_FTo-LNf7-M-34" target="8tKniSYLT_FTo-LNf7-M-32">
          <mxGeometry relative="1" as="geometry">
            <Array as="points">
              <mxPoint x="920" y="254" />
              <mxPoint x="782" y="254" />
            </Array>
          </mxGeometry>
        </mxCell>
        <mxCell id="8tKniSYLT_FTo-LNf7-M-34" value="елемент" style="shape=parallelogram;perimeter=parallelogramPerimeter;whiteSpace=wrap;html=1;fixedSize=1;" vertex="1" parent="1">
          <mxGeometry x="870" y="302.5" width="90" height="25" as="geometry" />
        </mxCell>
        <mxCell id="8tKniSYLT_FTo-LNf7-M-39" style="edgeStyle=orthogonalEdgeStyle;rounded=0;orthogonalLoop=1;jettySize=auto;html=1;entryX=0;entryY=0.5;entryDx=0;entryDy=0;" edge="1" parent="1" source="8tKniSYLT_FTo-LNf7-M-36" target="8tKniSYLT_FTo-LNf7-M-38">
          <mxGeometry relative="1" as="geometry" />
        </mxCell>
        <mxCell id="8tKniSYLT_FTo-LNf7-M-36" value="count = 0" style="rounded=0;whiteSpace=wrap;html=1;" vertex="1" parent="1">
          <mxGeometry x="838.75" y="370" width="70" height="30" as="geometry" />
        </mxCell>
        <mxCell id="8tKniSYLT_FTo-LNf7-M-40" value="False" style="edgeStyle=orthogonalEdgeStyle;rounded=0;orthogonalLoop=1;jettySize=auto;html=1;entryX=0;entryY=0.5;entryDx=0;entryDy=0;" edge="1" parent="1" source="8tKniSYLT_FTo-LNf7-M-38" target="8tKniSYLT_FTo-LNf7-M-41">
          <mxGeometry relative="1" as="geometry">
            <mxPoint x="1100" y="385" as="targetPoint" />
          </mxGeometry>
        </mxCell>
        <mxCell id="8tKniSYLT_FTo-LNf7-M-46" value="True" style="edgeStyle=orthogonalEdgeStyle;rounded=0;orthogonalLoop=1;jettySize=auto;html=1;entryX=0.5;entryY=0;entryDx=0;entryDy=0;" edge="1" parent="1" source="8tKniSYLT_FTo-LNf7-M-38" target="8tKniSYLT_FTo-LNf7-M-48">
          <mxGeometry relative="1" as="geometry">
            <mxPoint x="1005" y="460" as="targetPoint" />
          </mxGeometry>
        </mxCell>
        <mxCell id="8tKniSYLT_FTo-LNf7-M-38" value="&lt;font style=&quot;font-size: 7px;&quot;&gt;Останній елемент&amp;nbsp;&lt;/font&gt;&lt;div&gt;&lt;font style=&quot;font-size: 7px;&quot;&gt;списку arr&amp;nbsp;&lt;/font&gt;&lt;/div&gt;&lt;div&gt;&lt;font style=&quot;font-size: 7px;&quot;&gt;досянуто?&lt;/font&gt;&lt;/div&gt;" style="rhombus;whiteSpace=wrap;html=1;" vertex="1" parent="1">
          <mxGeometry x="960" y="343.75" width="90" height="82.5" as="geometry" />
        </mxCell>
        <mxCell id="8tKniSYLT_FTo-LNf7-M-44" value="True" style="edgeStyle=orthogonalEdgeStyle;rounded=0;orthogonalLoop=1;jettySize=auto;html=1;entryX=0.5;entryY=0;entryDx=0;entryDy=0;" edge="1" parent="1" source="8tKniSYLT_FTo-LNf7-M-41" target="8tKniSYLT_FTo-LNf7-M-43">
          <mxGeometry relative="1" as="geometry" />
        </mxCell>
        <mxCell id="8tKniSYLT_FTo-LNf7-M-45" value="False" style="edgeStyle=orthogonalEdgeStyle;rounded=0;orthogonalLoop=1;jettySize=auto;html=1;entryX=0.5;entryY=0;entryDx=0;entryDy=0;" edge="1" parent="1" source="8tKniSYLT_FTo-LNf7-M-41" target="8tKniSYLT_FTo-LNf7-M-38">
          <mxGeometry x="-0.786" relative="1" as="geometry">
            <Array as="points">
              <mxPoint x="1150" y="300" />
              <mxPoint x="1005" y="300" />
            </Array>
            <mxPoint as="offset" />
          </mxGeometry>
        </mxCell>
        <mxCell id="8tKniSYLT_FTo-LNf7-M-41" value="7 є в списку і&lt;div&gt;3 немає?&lt;/div&gt;" style="rhombus;whiteSpace=wrap;html=1;" vertex="1" parent="1">
          <mxGeometry x="1100" y="345" width="100" height="85" as="geometry" />
        </mxCell>
        <mxCell id="8tKniSYLT_FTo-LNf7-M-47" style="edgeStyle=orthogonalEdgeStyle;rounded=0;orthogonalLoop=1;jettySize=auto;html=1;entryX=0.5;entryY=0;entryDx=0;entryDy=0;" edge="1" parent="1" source="8tKniSYLT_FTo-LNf7-M-43" target="8tKniSYLT_FTo-LNf7-M-38">
          <mxGeometry relative="1" as="geometry">
            <Array as="points">
              <mxPoint x="1240" y="482" />
              <mxPoint x="1240" y="300" />
              <mxPoint x="1005" y="300" />
            </Array>
          </mxGeometry>
        </mxCell>
        <mxCell id="8tKniSYLT_FTo-LNf7-M-43" value="count +=1" style="rounded=0;whiteSpace=wrap;html=1;" vertex="1" parent="1">
          <mxGeometry x="1115" y="467.5" width="70" height="30" as="geometry" />
        </mxCell>
        <mxCell id="8tKniSYLT_FTo-LNf7-M-50" value="" style="edgeStyle=orthogonalEdgeStyle;rounded=0;orthogonalLoop=1;jettySize=auto;html=1;" edge="1" parent="1" source="8tKniSYLT_FTo-LNf7-M-48" target="8tKniSYLT_FTo-LNf7-M-49">
          <mxGeometry relative="1" as="geometry" />
        </mxCell>
        <mxCell id="8tKniSYLT_FTo-LNf7-M-48" value="Кількість стовпців без води і з золотом: &quot;, count" style="shape=parallelogram;perimeter=parallelogramPerimeter;whiteSpace=wrap;html=1;fixedSize=1;" vertex="1" parent="1">
          <mxGeometry x="857.5" y="550" width="295" height="45" as="geometry" />
        </mxCell>
        <mxCell id="8tKniSYLT_FTo-LNf7-M-49" value="Кінець" style="rounded=1;whiteSpace=wrap;html=1;arcSize=44;" vertex="1" parent="1">
          <mxGeometry x="970" y="620" width="70" height="30" as="geometry" />
        </mxCell>
      </root>
    </mxGraphModel>
  </diagram>
</mxfile>
